<svg baseProfile="full" height="312px" preserveAspectRatio="xMidYMid meet" style="font-family: times, serif; font-weight: normal; font-style: normal; font-size: 16px" version="1.1" viewBox="0,0,584.0,312.0" width="584px" xmlns="http://www.w3.org/2000/svg" xmlns:ev="http://www.w3.org/2001/xml-events" xmlns:xlink="http://www.w3.org/1999/xlink">
	<rect width="100%" height="100%" fill="white" />
	<defs />
	<svg width="100%" x="0" y="0px">
		<defs />
		<text text-anchor="middle" x="50%" y="16px">
			S
		</text>
	</svg>
	<svg width="32.8767%" x="0%" y="48px">
		<defs />
		<svg width="100%" x="0" y="0px">
			<defs />
			<text text-anchor="middle" x="50%" y="16px">
				PP
			</text>
		</svg>
		<svg width="25%" x="0%" y="48px">
			<defs />
			<svg width="100%" x="0" y="0px">
				<defs />
				<text text-anchor="middle" x="50%" y="16px">
					IN
				</text>
			</svg>
			<svg width="100%" x="0%" y="48px">
				<defs />
				<svg width="100%" x="0" y="0px">
					<defs />
					<text text-anchor="middle" x="50%" y="16px">
						With
					</text>
				</svg>
			</svg>
			<line stroke="black" x1="50%" x2="50%" y1="20px" y2="48px" />
		</svg>
		<line stroke="black" x1="50%" x2="12.5%" y1="20px" y2="48px" />
		<svg width="75%" x="25%" y="48px">
			<defs />
			<svg width="100%" x="0" y="0px">
				<defs />
				<text text-anchor="middle" x="50%" y="16px">
					NP
				</text>
			</svg>
			<svg width="22.2222%" x="0%" y="48px">
				<defs />
				<svg width="100%" x="0" y="0px">
					<defs />
					<text text-anchor="middle" x="50%" y="16px">
						DT
					</text>
				</svg>
				<svg width="100%" x="0%" y="48px">
					<defs />
					<svg width="100%" x="0" y="0px">
						<defs />
						<text text-anchor="middle" x="50%" y="16px">
							a
						</text>
					</svg>
				</svg>
				<line stroke="black" x1="50%" x2="50%" y1="20px" y2="48px" />
			</svg>
			<line stroke="black" x1="50%" x2="11.1111%" y1="20px" y2="48px" />
			<svg width="77.7778%" x="22.2222%" y="48px">
				<defs />
				<svg width="100%" x="0" y="0px">
					<defs />
					<text text-anchor="middle" x="50%" y="16px">
						NN
					</text>
				</svg>
				<svg width="100%" x="0%" y="48px">
					<defs />
					<svg width="100%" x="0" y="0px">
						<defs />
						<text text-anchor="middle" x="50%" y="16px">
							handkerchief
						</text>
					</svg>
				</svg>
				<line stroke="black" x1="50%" x2="50%" y1="20px" y2="48px" />
			</svg>
			<line stroke="black" x1="50%" x2="61.1111%" y1="20px" y2="48px" />
		</svg>
		<line stroke="black" x1="50%" x2="62.5%" y1="20px" y2="48px" />
	</svg>
	<line stroke="black" x1="50%" x2="16.4384%" y1="20px" y2="48px" />
	<svg width="63.0137%" x="32.8767%" y="48px">
		<defs />
		<svg width="100%" x="0" y="0px">
			<defs />
			<text text-anchor="middle" x="50%" y="16px">
				S
			</text>
		</svg>
		<svg width="10.8696%" x="0%" y="48px">
			<defs />
			<svg width="100%" x="0" y="0px">
				<defs />
				<text text-anchor="middle" x="50%" y="16px">
					NP
				</text>
			</svg>
			<svg width="100%" x="0%" y="48px">
				<defs />
				<svg width="100%" x="0" y="0px">
					<defs />
					<text text-anchor="middle" x="50%" y="16px">
						PRP
					</text>
				</svg>
				<svg width="100%" x="0%" y="48px">
					<defs />
					<svg width="100%" x="0" y="0px">
						<defs />
						<text text-anchor="middle" x="50%" y="16px">
							she
						</text>
					</svg>
				</svg>
				<line stroke="black" x1="50%" x2="50%" y1="20px" y2="48px" />
			</svg>
			<line stroke="black" x1="50%" x2="50%" y1="20px" y2="48px" />
		</svg>
		<line stroke="black" x1="50%" x2="5.43478%" y1="20px" y2="48px" />
		<svg width="89.1304%" x="10.8696%" y="48px">
			<defs />
			<svg width="100%" x="0" y="0px">
				<defs />
				<text text-anchor="middle" x="50%" y="16px">
					VP
				</text>
			</svg>
			<svg width="17.0732%" x="0%" y="48px">
				<defs />
				<svg width="100%" x="0" y="0px">
					<defs />
					<text text-anchor="middle" x="50%" y="16px">
						VBD
					</text>
				</svg>
				<svg width="100%" x="0%" y="48px">
					<defs />
					<svg width="100%" x="0" y="0px">
						<defs />
						<text text-anchor="middle" x="50%" y="16px">
							wiped
						</text>
					</svg>
				</svg>
				<line stroke="black" x1="50%" x2="50%" y1="20px" y2="48px" />
			</svg>
			<line stroke="black" x1="50%" x2="8.53659%" y1="20px" y2="48px" />
			<svg width="29.2683%" x="17.0732%" y="48px">
				<defs />
				<svg width="100%" x="0" y="0px">
					<defs />
					<text text-anchor="middle" x="50%" y="16px">
						NP
					</text>
				</svg>
				<svg width="41.6667%" x="0%" y="48px">
					<defs />
					<svg width="100%" x="0" y="0px">
						<defs />
						<text text-anchor="middle" x="50%" y="16px">
							DT
						</text>
					</svg>
					<svg width="100%" x="0%" y="48px">
						<defs />
						<svg width="100%" x="0" y="0px">
							<defs />
							<text text-anchor="middle" x="50%" y="16px">
								the
							</text>
						</svg>
					</svg>
					<line stroke="black" x1="50%" x2="50%" y1="20px" y2="48px" />
				</svg>
				<line stroke="black" x1="50%" x2="20.8333%" y1="20px" y2="48px" />
				<svg width="58.3333%" x="41.6667%" y="48px">
					<defs />
					<svg width="100%" x="0" y="0px">
						<defs />
						<text text-anchor="middle" x="50%" y="16px">
							NN
						</text>
					</svg>
					<svg width="100%" x="0%" y="48px">
						<defs />
						<svg width="100%" x="0" y="0px">
							<defs />
							<text text-anchor="middle" x="50%" y="16px">
								sweat
							</text>
						</svg>
					</svg>
					<line stroke="black" x1="50%" x2="50%" y1="20px" y2="48px" />
				</svg>
				<line stroke="black" x1="50%" x2="70.8333%" y1="20px" y2="48px" />
			</svg>
			<line stroke="black" x1="50%" x2="31.7073%" y1="20px" y2="48px" />
			<svg width="53.6585%" x="46.3415%" y="48px">
				<defs />
				<svg width="100%" x="0" y="0px">
					<defs />
					<text text-anchor="middle" x="50%" y="16px">
						PP
					</text>
				</svg>
				<svg width="27.2727%" x="0%" y="48px">
					<defs />
					<svg width="100%" x="0" y="0px">
						<defs />
						<text text-anchor="middle" x="50%" y="16px">
							IN
						</text>
					</svg>
					<svg width="100%" x="0%" y="48px">
						<defs />
						<svg width="100%" x="0" y="0px">
							<defs />
							<text text-anchor="middle" x="50%" y="16px">
								from
							</text>
						</svg>
					</svg>
					<line stroke="black" x1="50%" x2="50%" y1="20px" y2="48px" />
				</svg>
				<line stroke="black" x1="50%" x2="13.6364%" y1="20px" y2="48px" />
				<svg width="72.7273%" x="27.2727%" y="48px">
					<defs />
					<svg width="100%" x="0" y="0px">
						<defs />
						<text text-anchor="middle" x="50%" y="16px">
							NP
						</text>
					</svg>
					<svg width="37.5%" x="0%" y="48px">
						<defs />
						<svg width="100%" x="0" y="0px">
							<defs />
							<text text-anchor="middle" x="50%" y="16px">
								PRP$
							</text>
						</svg>
						<svg width="100%" x="0%" y="48px">
							<defs />
							<svg width="100%" x="0" y="0px">
								<defs />
								<text text-anchor="middle" x="50%" y="16px">
									her
								</text>
							</svg>
						</svg>
						<line stroke="black" x1="50%" x2="50%" y1="20px" y2="48px" />
					</svg>
					<line stroke="black" x1="50%" x2="18.75%" y1="20px" y2="48px" />
					<svg width="62.5%" x="37.5%" y="48px">
						<defs />
						<svg width="100%" x="0" y="0px">
							<defs />
							<text text-anchor="middle" x="50%" y="16px">
								NN
							</text>
						</svg>
						<svg width="100%" x="0%" y="48px">
							<defs />
							<svg width="100%" x="0" y="0px">
								<defs />
								<text text-anchor="middle" x="50%" y="16px">
									forehead
								</text>
							</svg>
						</svg>
						<line stroke="black" x1="50%" x2="50%" y1="20px" y2="48px" />
					</svg>
					<line stroke="black" x1="50%" x2="68.75%" y1="20px" y2="48px" />
				</svg>
				<line stroke="black" x1="50%" x2="63.6364%" y1="20px" y2="48px" />
			</svg>
			<line stroke="black" x1="50%" x2="73.1707%" y1="20px" y2="48px" />
		</svg>
		<line stroke="black" x1="50%" x2="55.4348%" y1="20px" y2="48px" />
	</svg>
	<line stroke="black" x1="50%" x2="64.3836%" y1="20px" y2="48px" />
	<svg width="4.10959%" x="95.8904%" y="48px">
		<defs />
		<svg width="100%" x="0" y="0px">
			<defs />
			<text text-anchor="middle" x="50%" y="16px">
				.
			</text>
		</svg>
		<svg width="100%" x="0%" y="48px">
			<defs />
			<svg width="100%" x="0" y="0px">
				<defs />
				<text text-anchor="middle" x="50%" y="16px">
					.
				</text>
			</svg>
		</svg>
		<line stroke="black" x1="50%" x2="50%" y1="20px" y2="48px" />
	</svg>
	<line stroke="black" x1="50%" x2="97.9452%" y1="20px" y2="48px" />
</svg>
