<svg baseProfile="full" height="264px" preserveAspectRatio="xMidYMid meet" style="font-family: times, serif; font-weight: normal; font-style: normal; font-size: 16px" version="1.1" viewBox="0,0,424.0,264.0" width="424px" xmlns="http://www.w3.org/2000/svg" xmlns:ev="http://www.w3.org/2001/xml-events" xmlns:xlink="http://www.w3.org/1999/xlink">
	<rect width="100%" height="100%" fill="white" />
    <defs />
	<svg width="100%" x="0" y="0px">
		<defs />
		<text text-anchor="middle" x="50%" y="16px">
			S
		</text>
	</svg>
	<svg width="62.2642%" x="0%" y="48px">
		<defs />
		<svg width="100%" x="0" y="0px">
			<defs />
			<text text-anchor="middle" x="50%" y="16px">
				NP
			</text>
		</svg>
		<svg width="15.1515%" x="0%" y="48px">
			<defs />
			<svg width="100%" x="0" y="0px">
				<defs />
				<text text-anchor="middle" x="50%" y="16px">
					NP
				</text>
			</svg>
			<svg width="100%" x="0%" y="48px">
				<defs />
				<svg width="100%" x="0" y="0px">
					<defs />
					<text text-anchor="middle" x="50%" y="16px">
						RB
					</text>
				</svg>
				<svg width="100%" x="0%" y="48px">
					<defs />
					<svg width="100%" x="0" y="0px">
						<defs />
						<text text-anchor="middle" x="50%" y="16px">
							All
						</text>
					</svg>
				</svg>
				<line stroke="black" x1="50%" x2="50%" y1="20px" y2="48px" />
			</svg>
			<line stroke="black" x1="50%" x2="50%" y1="20px" y2="48px" />
		</svg>
		<line stroke="black" x1="50%" x2="7.57576%" y1="20px" y2="48px" />
		<svg width="84.8485%" x="15.1515%" y="48px">
			<defs />
			<svg width="100%" x="0" y="0px">
				<defs />
				<text text-anchor="middle" x="50%" y="16px">
					PP
				</text>
			</svg>
			<svg width="32.1429%" x="0%" y="48px">
				<defs />
				<svg width="100%" x="0" y="0px">
					<defs />
					<text text-anchor="middle" x="50%" y="16px">
						IN
					</text>
				</svg>
				<svg width="100%" x="0%" y="48px">
					<defs />
					<svg width="100%" x="0" y="0px">
						<defs />
						<text text-anchor="middle" x="50%" y="16px">
							through
						</text>
					</svg>
				</svg>
				<line stroke="black" x1="50%" x2="50%" y1="20px" y2="48px" />
			</svg>
			<line stroke="black" x1="50%" x2="16.0714%" y1="20px" y2="48px" />
			<svg width="28.5714%" x="32.1429%" y="48px">
				<defs />
				<svg width="100%" x="0" y="0px">
					<defs />
					<text text-anchor="middle" x="50%" y="16px">
						NNP
					</text>
				</svg>
				<svg width="100%" x="0%" y="48px">
					<defs />
					<svg width="100%" x="0" y="0px">
						<defs />
						<text text-anchor="middle" x="50%" y="16px">
							August
						</text>
					</svg>
				</svg>
				<line stroke="black" x1="50%" x2="50%" y1="20px" y2="48px" />
			</svg>
			<line stroke="black" x1="50%" x2="46.4286%" y1="20px" y2="48px" />
			<svg width="39.2857%" x="60.7143%" y="48px">
				<defs />
				<svg width="100%" x="0" y="0px">
					<defs />
					<text text-anchor="middle" x="50%" y="16px">
						NP
					</text>
				</svg>
				<svg width="45.4545%" x="0%" y="48px">
					<defs />
					<svg width="100%" x="0" y="0px">
						<defs />
						<text text-anchor="middle" x="50%" y="16px">
							DT
						</text>
					</svg>
					<svg width="100%" x="0%" y="48px">
						<defs />
						<svg width="100%" x="0" y="0px">
							<defs />
							<text text-anchor="middle" x="50%" y="16px">
								the
							</text>
						</svg>
					</svg>
					<line stroke="black" x1="50%" x2="50%" y1="20px" y2="48px" />
				</svg>
				<line stroke="black" x1="50%" x2="22.7273%" y1="20px" y2="48px" />
				<svg width="54.5455%" x="45.4545%" y="48px">
					<defs />
					<svg width="100%" x="0" y="0px">
						<defs />
						<text text-anchor="middle" x="50%" y="16px">
							NN
						</text>
					</svg>
					<svg width="100%" x="0%" y="48px">
						<defs />
						<svg width="100%" x="0" y="0px">
							<defs />
							<text text-anchor="middle" x="50%" y="16px">
								rain
							</text>
						</svg>
					</svg>
					<line stroke="black" x1="50%" x2="50%" y1="20px" y2="48px" />
				</svg>
				<line stroke="black" x1="50%" x2="72.7273%" y1="20px" y2="48px" />
			</svg>
			<line stroke="black" x1="50%" x2="80.3571%" y1="20px" y2="48px" />
		</svg>
		<line stroke="black" x1="50%" x2="57.5758%" y1="20px" y2="48px" />
	</svg>
	<line stroke="black" x1="50%" x2="31.1321%" y1="20px" y2="48px" />
	<svg width="32.0755%" x="62.2642%" y="48px">
		<defs />
		<svg width="100%" x="0" y="0px">
			<defs />
			<text text-anchor="middle" x="50%" y="16px">
				VP
			</text>
		</svg>
		<svg width="47.0588%" x="0%" y="48px">
			<defs />
			<svg width="100%" x="0" y="0px">
				<defs />
				<text text-anchor="middle" x="50%" y="16px">
					ADVP
				</text>
			</svg>
			<svg width="100%" x="0%" y="48px">
				<defs />
				<svg width="100%" x="0" y="0px">
					<defs />
					<text text-anchor="middle" x="50%" y="16px">
						RB
					</text>
				</svg>
				<svg width="100%" x="0%" y="48px">
					<defs />
					<svg width="100%" x="0" y="0px">
						<defs />
						<text text-anchor="middle" x="50%" y="16px">
							hardly
						</text>
					</svg>
				</svg>
				<line stroke="black" x1="50%" x2="50%" y1="20px" y2="48px" />
			</svg>
			<line stroke="black" x1="50%" x2="50%" y1="20px" y2="48px" />
		</svg>
		<line stroke="black" x1="50%" x2="23.5294%" y1="20px" y2="48px" />
		<svg width="52.9412%" x="47.0588%" y="48px">
			<defs />
			<svg width="100%" x="0" y="0px">
				<defs />
				<text text-anchor="middle" x="50%" y="16px">
					VBD
				</text>
			</svg>
			<svg width="100%" x="0%" y="48px">
				<defs />
				<svg width="100%" x="0" y="0px">
					<defs />
					<text text-anchor="middle" x="50%" y="16px">
						stopped
					</text>
				</svg>
			</svg>
			<line stroke="black" x1="50%" x2="50%" y1="20px" y2="48px" />
		</svg>
		<line stroke="black" x1="50%" x2="73.5294%" y1="20px" y2="48px" />
	</svg>
	<line stroke="black" x1="50%" x2="78.3019%" y1="20px" y2="48px" />
	<svg width="5.66038%" x="94.3396%" y="48px">
		<defs />
		<svg width="100%" x="0" y="0px">
			<defs />
			<text text-anchor="middle" x="50%" y="16px">
				.
			</text>
		</svg>
		<svg width="100%" x="0%" y="48px">
			<defs />
			<svg width="100%" x="0" y="0px">
				<defs />
				<text text-anchor="middle" x="50%" y="16px">
					.
				</text>
			</svg>
		</svg>
		<line stroke="black" x1="50%" x2="50%" y1="20px" y2="48px" />
	</svg>
	<line stroke="black" x1="50%" x2="97.1698%" y1="20px" y2="48px" />
</svg>
