<svg baseProfile="full" height="408px" preserveAspectRatio="xMidYMid meet" style="font-family: times, serif; font-weight: normal; font-style: normal; font-size: 16px" version="1.1" viewBox="0,0,600.0,408.0" width="600px" xmlns="http://www.w3.org/2000/svg" xmlns:ev="http://www.w3.org/2001/xml-events" xmlns:xlink="http://www.w3.org/1999/xlink">
	<rect width="100%" height="100%" fill="white" />
	<defs />
	<svg width="100%" x="0" y="0px">
		<defs />
		<text text-anchor="middle" x="50%" y="16px">
			S
		</text>
	</svg>
	<svg width="6.66667%" x="0%" y="48px">
		<defs />
		<svg width="100%" x="0" y="0px">
			<defs />
			<text text-anchor="middle" x="50%" y="16px">
				NP
			</text>
		</svg>
		<svg width="100%" x="0%" y="48px">
			<defs />
			<svg width="100%" x="0" y="0px">
				<defs />
				<text text-anchor="middle" x="50%" y="16px">
					PRP
				</text>
			</svg>
			<svg width="100%" x="0%" y="48px">
				<defs />
				<svg width="100%" x="0" y="0px">
					<defs />
					<text text-anchor="middle" x="50%" y="16px">
						She
					</text>
				</svg>
			</svg>
			<line stroke="black" x1="50%" x2="50%" y1="20px" y2="48px" />
		</svg>
		<line stroke="black" x1="50%" x2="50%" y1="20px" y2="48px" />
	</svg>
	<line stroke="black" x1="50%" x2="3.33333%" y1="20px" y2="48px" />
	<svg width="93.3333%" x="6.66667%" y="48px">
		<defs />
		<svg width="100%" x="0" y="0px">
			<defs />
			<text text-anchor="middle" x="50%" y="16px">
				VP
			</text>
		</svg>
		<svg width="11.4286%" x="0%" y="48px">
			<defs />
			<svg width="100%" x="0" y="0px">
				<defs />
				<text text-anchor="middle" x="50%" y="16px">
					VBD
				</text>
			</svg>
			<svg width="100%" x="0%" y="48px">
				<defs />
				<svg width="100%" x="0" y="0px">
					<defs />
					<text text-anchor="middle" x="50%" y="16px">
						sighed
					</text>
				</svg>
			</svg>
			<line stroke="black" x1="50%" x2="50%" y1="20px" y2="48px" />
		</svg>
		<line stroke="black" x1="50%" x2="5.71429%" y1="20px" y2="48px" />
		<svg width="88.5714%" x="11.4286%" y="48px">
			<defs />
			<svg width="100%" x="0" y="0px">
				<defs />
				<text text-anchor="middle" x="50%" y="16px">
					PP
				</text>
			</svg>
			<svg width="6.45161%" x="0%" y="48px">
				<defs />
				<svg width="100%" x="0" y="0px">
					<defs />
					<text text-anchor="middle" x="50%" y="16px">
						IN
					</text>
				</svg>
				<svg width="100%" x="0%" y="48px">
					<defs />
					<svg width="100%" x="0" y="0px">
						<defs />
						<text text-anchor="middle" x="50%" y="16px">
							at
						</text>
					</svg>
				</svg>
				<line stroke="black" x1="50%" x2="50%" y1="20px" y2="48px" />
			</svg>
			<line stroke="black" x1="50%" x2="3.22581%" y1="20px" y2="48px" />
			<svg width="93.5484%" x="6.45161%" y="48px">
				<defs />
				<svg width="100%" x="0" y="0px">
					<defs />
					<text text-anchor="middle" x="50%" y="16px">
						NP
					</text>
				</svg>
				<svg width="44.8276%" x="0%" y="48px">
					<defs />
					<svg width="100%" x="0" y="0px">
						<defs />
						<text text-anchor="middle" x="50%" y="16px">
							NP
						</text>
					</svg>
					<svg width="46.1538%" x="0%" y="48px">
						<defs />
						<svg width="100%" x="0" y="0px">
							<defs />
							<text text-anchor="middle" x="50%" y="16px">
								NP
							</text>
						</svg>
						<svg width="41.6667%" x="0%" y="48px">
							<defs />
							<svg width="100%" x="0" y="0px">
								<defs />
								<text text-anchor="middle" x="50%" y="16px">
									DT
								</text>
							</svg>
							<svg width="100%" x="0%" y="48px">
								<defs />
								<svg width="100%" x="0" y="0px">
									<defs />
									<text text-anchor="middle" x="50%" y="16px">
										the
									</text>
								</svg>
							</svg>
							<line stroke="black" x1="50%" x2="50%" y1="20px" y2="48px" />
						</svg>
						<line stroke="black" x1="50%" x2="20.8333%" y1="20px" y2="48px" />
						<svg width="58.3333%" x="41.6667%" y="48px">
							<defs />
							<svg width="100%" x="0" y="0px">
								<defs />
								<text text-anchor="middle" x="50%" y="16px">
									NN
								</text>
							</svg>
							<svg width="100%" x="0%" y="48px">
								<defs />
								<svg width="100%" x="0" y="0px">
									<defs />
									<text text-anchor="middle" x="50%" y="16px">
										irony
									</text>
								</svg>
							</svg>
							<line stroke="black" x1="50%" x2="50%" y1="20px" y2="48px" />
						</svg>
						<line stroke="black" x1="50%" x2="70.8333%" y1="20px" y2="48px" />
					</svg>
					<line stroke="black" x1="50%" x2="23.0769%" y1="20px" y2="48px" />
					<svg width="53.8462%" x="46.1538%" y="48px">
						<defs />
						<svg width="100%" x="0" y="0px">
							<defs />
							<text text-anchor="middle" x="50%" y="16px">
								PP
							</text>
						</svg>
						<svg width="28.5714%" x="0%" y="48px">
							<defs />
							<svg width="100%" x="0" y="0px">
								<defs />
								<text text-anchor="middle" x="50%" y="16px">
									IN
								</text>
							</svg>
							<svg width="100%" x="0%" y="48px">
								<defs />
								<svg width="100%" x="0" y="0px">
									<defs />
									<text text-anchor="middle" x="50%" y="16px">
										of
									</text>
								</svg>
							</svg>
							<line stroke="black" x1="50%" x2="50%" y1="20px" y2="48px" />
						</svg>
						<line stroke="black" x1="50%" x2="14.2857%" y1="20px" y2="48px" />
						<svg width="71.4286%" x="28.5714%" y="48px">
							<defs />
							<svg width="100%" x="0" y="0px">
								<defs />
								<text text-anchor="middle" x="50%" y="16px">
									NP
								</text>
							</svg>
							<svg width="50%" x="0%" y="48px">
								<defs />
								<svg width="100%" x="0" y="0px">
									<defs />
									<text text-anchor="middle" x="50%" y="16px">
										PRP
									</text>
								</svg>
								<svg width="100%" x="0%" y="48px">
									<defs />
									<svg width="100%" x="0" y="0px">
										<defs />
										<text text-anchor="middle" x="50%" y="16px">
											it
										</text>
									</svg>
								</svg>
								<line stroke="black" x1="50%" x2="50%" y1="20px" y2="48px" />
							</svg>
							<line stroke="black" x1="50%" x2="25%" y1="20px" y2="48px" />
							<svg width="50%" x="50%" y="48px">
								<defs />
								<svg width="100%" x="0" y="0px">
									<defs />
									<text text-anchor="middle" x="50%" y="16px">
										DT
									</text>
								</svg>
								<svg width="100%" x="0%" y="48px">
									<defs />
									<svg width="100%" x="0" y="0px">
										<defs />
										<text text-anchor="middle" x="50%" y="16px">
											all
										</text>
									</svg>
								</svg>
								<line stroke="black" x1="50%" x2="50%" y1="20px" y2="48px" />
							</svg>
							<line stroke="black" x1="50%" x2="75%" y1="20px" y2="48px" />
						</svg>
						<line stroke="black" x1="50%" x2="64.2857%" y1="20px" y2="48px" />
					</svg>
					<line stroke="black" x1="50%" x2="73.0769%" y1="20px" y2="48px" />
				</svg>
				<line stroke="black" x1="50%" x2="22.4138%" y1="20px" y2="48px" />
				<svg width="5.17241%" x="44.8276%" y="48px">
					<defs />
					<svg width="100%" x="0" y="0px">
						<defs />
						<text text-anchor="middle" x="50%" y="16px">
							,
						</text>
					</svg>
					<svg width="100%" x="0%" y="48px">
						<defs />
						<svg width="100%" x="0" y="0px">
							<defs />
							<text text-anchor="middle" x="50%" y="16px">
								,
							</text>
						</svg>
					</svg>
					<line stroke="black" x1="50%" x2="50%" y1="20px" y2="48px" />
				</svg>
				<line stroke="black" x1="50%" x2="47.4138%" y1="20px" y2="48px" />
				<svg width="50%" x="50%" y="48px">
					<defs />
					<svg width="100%" x="0" y="0px">
						<defs />
						<text text-anchor="middle" x="50%" y="16px">
							NP
						</text>
					</svg>
					<svg width="41.3793%" x="0%" y="48px">
						<defs />
						<svg width="100%" x="0" y="0px">
							<defs />
							<text text-anchor="middle" x="50%" y="16px">
								NP
							</text>
						</svg>
						<svg width="41.6667%" x="0%" y="48px">
							<defs />
							<svg width="100%" x="0" y="0px">
								<defs />
								<text text-anchor="middle" x="50%" y="16px">
									DT
								</text>
							</svg>
							<svg width="100%" x="0%" y="48px">
								<defs />
								<svg width="100%" x="0" y="0px">
									<defs />
									<text text-anchor="middle" x="50%" y="16px">
										the
									</text>
								</svg>
							</svg>
							<line stroke="black" x1="50%" x2="50%" y1="20px" y2="48px" />
						</svg>
						<line stroke="black" x1="50%" x2="20.8333%" y1="20px" y2="48px" />
						<svg width="58.3333%" x="41.6667%" y="48px">
							<defs />
							<svg width="100%" x="0" y="0px">
								<defs />
								<text text-anchor="middle" x="50%" y="16px">
									NN
								</text>
							</svg>
							<svg width="100%" x="0%" y="48px">
								<defs />
								<svg width="100%" x="0" y="0px">
									<defs />
									<text text-anchor="middle" x="50%" y="16px">
										waste
									</text>
								</svg>
							</svg>
							<line stroke="black" x1="50%" x2="50%" y1="20px" y2="48px" />
						</svg>
						<line stroke="black" x1="50%" x2="70.8333%" y1="20px" y2="48px" />
					</svg>
					<line stroke="black" x1="50%" x2="20.6897%" y1="20px" y2="48px" />
					<svg width="48.2759%" x="41.3793%" y="48px">
						<defs />
						<svg width="100%" x="0" y="0px">
							<defs />
							<text text-anchor="middle" x="50%" y="16px">
								PP
							</text>
						</svg>
						<svg width="28.5714%" x="0%" y="48px">
							<defs />
							<svg width="100%" x="0" y="0px">
								<defs />
								<text text-anchor="middle" x="50%" y="16px">
									IN
								</text>
							</svg>
							<svg width="100%" x="0%" y="48px">
								<defs />
								<svg width="100%" x="0" y="0px">
									<defs />
									<text text-anchor="middle" x="50%" y="16px">
										of
									</text>
								</svg>
							</svg>
							<line stroke="black" x1="50%" x2="50%" y1="20px" y2="48px" />
						</svg>
						<line stroke="black" x1="50%" x2="14.2857%" y1="20px" y2="48px" />
						<svg width="71.4286%" x="28.5714%" y="48px">
							<defs />
							<svg width="100%" x="0" y="0px">
								<defs />
								<text text-anchor="middle" x="50%" y="16px">
									NP
								</text>
							</svg>
							<svg width="50%" x="0%" y="48px">
								<defs />
								<svg width="100%" x="0" y="0px">
									<defs />
									<text text-anchor="middle" x="50%" y="16px">
										PRP
									</text>
								</svg>
								<svg width="100%" x="0%" y="48px">
									<defs />
									<svg width="100%" x="0" y="0px">
										<defs />
										<text text-anchor="middle" x="50%" y="16px">
											it
										</text>
									</svg>
								</svg>
								<line stroke="black" x1="50%" x2="50%" y1="20px" y2="48px" />
							</svg>
							<line stroke="black" x1="50%" x2="25%" y1="20px" y2="48px" />
							<svg width="50%" x="50%" y="48px">
								<defs />
								<svg width="100%" x="0" y="0px">
									<defs />
									<text text-anchor="middle" x="50%" y="16px">
										DT
									</text>
								</svg>
								<svg width="100%" x="0%" y="48px">
									<defs />
									<svg width="100%" x="0" y="0px">
										<defs />
										<text text-anchor="middle" x="50%" y="16px">
											all
										</text>
									</svg>
								</svg>
								<line stroke="black" x1="50%" x2="50%" y1="20px" y2="48px" />
							</svg>
							<line stroke="black" x1="50%" x2="75%" y1="20px" y2="48px" />
						</svg>
						<line stroke="black" x1="50%" x2="64.2857%" y1="20px" y2="48px" />
					</svg>
					<line stroke="black" x1="50%" x2="65.5172%" y1="20px" y2="48px" />
					<svg width="10.3448%" x="89.6552%" y="48px">
						<defs />
						<svg width="100%" x="0" y="0px">
							<defs />
							<text text-anchor="middle" x="50%" y="16px">
								.
							</text>
						</svg>
						<svg width="100%" x="0%" y="48px">
							<defs />
							<svg width="100%" x="0" y="0px">
								<defs />
								<text text-anchor="middle" x="50%" y="16px">
									.
								</text>
							</svg>
						</svg>
						<line stroke="black" x1="50%" x2="50%" y1="20px" y2="48px" />
					</svg>
					<line stroke="black" x1="50%" x2="94.8276%" y1="20px" y2="48px" />
				</svg>
				<line stroke="black" x1="50%" x2="75%" y1="20px" y2="48px" />
			</svg>
			<line stroke="black" x1="50%" x2="53.2258%" y1="20px" y2="48px" />
		</svg>
		<line stroke="black" x1="50%" x2="55.7143%" y1="20px" y2="48px" />
	</svg>
	<line stroke="black" x1="50%" x2="53.3333%" y1="20px" y2="48px" />
</svg>
