<svg baseProfile="full" height="744px" preserveAspectRatio="xMidYMid meet" style="font-family: times, serif; font-weight: normal; font-style: normal; font-size: 16px" version="1.1" viewBox="0,0,1200.0,744.0" width="1200px" xmlns="http://www.w3.org/2000/svg" xmlns:ev="http://www.w3.org/2001/xml-events" xmlns:xlink="http://www.w3.org/1999/xlink"><defs /><svg width="100%" x="0" y="0px"><defs /><text text-anchor="middle" x="50%" y="16px">S</text></svg><svg width="7.33333%" x="0%" y="48px"><defs /><svg width="100%" x="0" y="0px"><defs /><text text-anchor="middle" x="50%" y="16px">ADVP</text></svg><svg width="100%" x="0%" y="48px"><defs /><svg width="100%" x="0" y="0px"><defs /><text text-anchor="middle" x="50%" y="16px">RB</text></svg><svg width="100%" x="0%" y="48px"><defs /><svg width="100%" x="0" y="0px"><defs /><text text-anchor="middle" x="50%" y="16px">Prudently</text></svg></svg><line stroke="black" x1="50%" x2="50%" y1="20px" y2="48px" /></svg><line stroke="black" x1="50%" x2="50%" y1="20px" y2="48px" /></svg><line stroke="black" x1="50%" x2="3.66667%" y1="20px" y2="48px" /><svg width="2%" x="7.33333%" y="48px"><defs /><svg width="100%" x="0" y="0px"><defs /><text text-anchor="middle" x="50%" y="16px">,</text></svg><svg width="100%" x="0%" y="48px"><defs /><svg width="100%" x="0" y="0px"><defs /><text text-anchor="middle" x="50%" y="16px">,</text></svg></svg><line stroke="black" x1="50%" x2="50%" y1="20px" y2="48px" /></svg><line stroke="black" x1="50%" x2="8.33333%" y1="20px" y2="48px" /><svg width="4%" x="9.33333%" y="48px"><defs /><svg width="100%" x="0" y="0px"><defs /><text text-anchor="middle" x="50%" y="16px">NP</text></svg><svg width="100%" x="0%" y="48px"><defs /><svg width="100%" x="0" y="0px"><defs /><text text-anchor="middle" x="50%" y="16px">PRP</text></svg><svg width="100%" x="0%" y="48px"><defs /><svg width="100%" x="0" y="0px"><defs /><text text-anchor="middle" x="50%" y="16px">they</text></svg></svg><line stroke="black" x1="50%" x2="50%" y1="20px" y2="48px" /></svg><line stroke="black" x1="50%" x2="50%" y1="20px" y2="48px" /></svg><line stroke="black" x1="50%" x2="11.3333%" y1="20px" y2="48px" /><svg width="84.6667%" x="13.3333%" y="48px"><defs /><svg width="100%" x="0" y="0px"><defs /><text text-anchor="middle" x="50%" y="16px">VP</text></svg><svg width="3.93701%" x="0%" y="48px"><defs /><svg width="100%" x="0" y="0px"><defs /><text text-anchor="middle" x="50%" y="16px">VBD</text></svg><svg width="100%" x="0%" y="48px"><defs /><svg width="100%" x="0" y="0px"><defs /><text text-anchor="middle" x="50%" y="16px">had</text></svg></svg><line stroke="black" x1="50%" x2="50%" y1="20px" y2="48px" /></svg><line stroke="black" x1="50%" x2="1.9685%" y1="20px" y2="48px" /><svg width="96.063%" x="3.93701%" y="48px"><defs /><svg width="100%" x="0" y="0px"><defs /><text text-anchor="middle" x="50%" y="16px">VP</text></svg><svg width="10.6557%" x="0%" y="48px"><defs /><svg width="100%" x="0" y="0px"><defs /><text text-anchor="middle" x="50%" y="16px">VBN</text></svg><svg width="100%" x="0%" y="48px"><defs /><svg width="100%" x="0" y="0px"><defs /><text text-anchor="middle" x="50%" y="16px">diversified</text></svg></svg><line stroke="black" x1="50%" x2="50%" y1="20px" y2="48px" /></svg><line stroke="black" x1="50%" x2="5.32787%" y1="20px" y2="48px" /><svg width="89.3443%" x="10.6557%" y="48px"><defs /><svg width="100%" x="0" y="0px"><defs /><text text-anchor="middle" x="50%" y="16px">PP</text></svg><svg width="28.4404%" x="0%" y="48px"><defs /><svg width="100%" x="0" y="0px"><defs /><text text-anchor="middle" x="50%" y="16px">PP</text></svg><svg width="19.3548%" x="0%" y="48px"><defs /><svg width="100%" x="0" y="0px"><defs /><text text-anchor="middle" x="50%" y="16px">IN</text></svg><svg width="100%" x="0%" y="48px"><defs /><svg width="100%" x="0" y="0px"><defs /><text text-anchor="middle" x="50%" y="16px">into</text></svg></svg><line stroke="black" x1="50%" x2="50%" y1="20px" y2="48px" /></svg><line stroke="black" x1="50%" x2="9.67742%" y1="20px" y2="48px" /><svg width="80.6452%" x="19.3548%" y="48px"><defs /><svg width="100%" x="0" y="0px"><defs /><text text-anchor="middle" x="50%" y="16px">NP</text></svg><svg width="36%" x="0%" y="48px"><defs /><svg width="100%" x="0" y="0px"><defs /><text text-anchor="middle" x="50%" y="16px">NN</text></svg><svg width="100%" x="0%" y="48px"><defs /><svg width="100%" x="0" y="0px"><defs /><text text-anchor="middle" x="50%" y="16px">banking</text></svg></svg><line stroke="black" x1="50%" x2="50%" y1="20px" y2="48px" /></svg><line stroke="black" x1="50%" x2="18%" y1="20px" y2="48px" /><svg width="20%" x="36%" y="48px"><defs /><svg width="100%" x="0" y="0px"><defs /><text text-anchor="middle" x="50%" y="16px">CC</text></svg><svg width="100%" x="0%" y="48px"><defs /><svg width="100%" x="0" y="0px"><defs /><text text-anchor="middle" x="50%" y="16px">and</text></svg></svg><line stroke="black" x1="50%" x2="50%" y1="20px" y2="48px" /></svg><line stroke="black" x1="50%" x2="46%" y1="20px" y2="48px" /><svg width="44%" x="56%" y="48px"><defs /><svg width="100%" x="0" y="0px"><defs /><text text-anchor="middle" x="50%" y="16px">NN</text></svg><svg width="100%" x="0%" y="48px"><defs /><svg width="100%" x="0" y="0px"><defs /><text text-anchor="middle" x="50%" y="16px">insurance</text></svg></svg><line stroke="black" x1="50%" x2="50%" y1="20px" y2="48px" /></svg><line stroke="black" x1="50%" x2="78%" y1="20px" y2="48px" /></svg><line stroke="black" x1="50%" x2="59.6774%" y1="20px" y2="48px" /></svg><line stroke="black" x1="50%" x2="14.2202%" y1="20px" y2="48px" /><svg width="2.75229%" x="28.4404%" y="48px"><defs /><svg width="100%" x="0" y="0px"><defs /><text text-anchor="middle" x="50%" y="16px">,</text></svg><svg width="100%" x="0%" y="48px"><defs /><svg width="100%" x="0" y="0px"><defs /><text text-anchor="middle" x="50%" y="16px">,</text></svg></svg><line stroke="black" x1="50%" x2="50%" y1="20px" y2="48px" /></svg><line stroke="black" x1="50%" x2="29.8165%" y1="20px" y2="48px" /><svg width="4.58716%" x="31.1927%" y="48px"><defs /><svg width="100%" x="0" y="0px"><defs /><text text-anchor="middle" x="50%" y="16px">CC</text></svg><svg width="100%" x="0%" y="48px"><defs /><svg width="100%" x="0" y="0px"><defs /><text text-anchor="middle" x="50%" y="16px">and</text></svg></svg><line stroke="black" x1="50%" x2="50%" y1="20px" y2="48px" /></svg><line stroke="black" x1="50%" x2="33.4862%" y1="20px" y2="48px" /><svg width="64.2202%" x="35.7798%" y="48px"><defs /><svg width="100%" x="0" y="0px"><defs /><text text-anchor="middle" x="50%" y="16px">PP</text></svg><svg width="5.71429%" x="0%" y="48px"><defs /><svg width="100%" x="0" y="0px"><defs /><text text-anchor="middle" x="50%" y="16px">IN</text></svg><svg width="100%" x="0%" y="48px"><defs /><svg width="100%" x="0" y="0px"><defs /><text text-anchor="middle" x="50%" y="16px">as</text></svg></svg><line stroke="black" x1="50%" x2="50%" y1="20px" y2="48px" /></svg><line stroke="black" x1="50%" x2="2.85714%" y1="20px" y2="48px" /><svg width="94.2857%" x="5.71429%" y="48px"><defs /><svg width="100%" x="0" y="0px"><defs /><text text-anchor="middle" x="50%" y="16px">NP</text></svg><svg width="6.06061%" x="0%" y="48px"><defs /><svg width="100%" x="0" y="0px"><defs /><text text-anchor="middle" x="50%" y="16px">DT</text></svg><svg width="100%" x="0%" y="48px"><defs /><svg width="100%" x="0" y="0px"><defs /><text text-anchor="middle" x="50%" y="16px">a</text></svg></svg><line stroke="black" x1="50%" x2="50%" y1="20px" y2="48px" /></svg><line stroke="black" x1="50%" x2="3.0303%" y1="20px" y2="48px" /><svg width="83.3333%" x="6.06061%" y="48px"><defs /><svg width="100%" x="0" y="0px"><defs /><text text-anchor="middle" x="50%" y="16px">NML</text></svg><svg width="100%" x="0%" y="48px"><defs /><svg width="100%" x="0" y="0px"><defs /><text text-anchor="middle" x="50%" y="16px">S</text></svg><svg width="100%" x="0%" y="48px"><defs /><svg width="100%" x="0" y="0px"><defs /><text text-anchor="middle" x="50%" y="16px">VP</text></svg><svg width="14.5455%" x="0%" y="48px"><defs /><svg width="100%" x="0" y="0px"><defs /><text text-anchor="middle" x="50%" y="16px">VB</text></svg><svg width="100%" x="0%" y="48px"><defs /><svg width="100%" x="0" y="0px"><defs /><text text-anchor="middle" x="50%" y="16px">result</text></svg></svg><line stroke="black" x1="50%" x2="50%" y1="20px" y2="48px" /></svg><line stroke="black" x1="50%" x2="7.27273%" y1="20px" y2="48px" /><svg width="85.4545%" x="14.5455%" y="48px"><defs /><svg width="100%" x="0" y="0px"><defs /><text text-anchor="middle" x="50%" y="16px">S</text></svg><svg width="38.2979%" x="0%" y="48px"><defs /><svg width="100%" x="0" y="0px"><defs /><text text-anchor="middle" x="50%" y="16px">NP</text></svg><svg width="38.8889%" x="0%" y="48px"><defs /><svg width="100%" x="0" y="0px"><defs /><text text-anchor="middle" x="50%" y="16px">PRP$</text></svg><svg width="100%" x="0%" y="48px"><defs /><svg width="100%" x="0" y="0px"><defs /><text text-anchor="middle" x="50%" y="16px">their</text></svg></svg><line stroke="black" x1="50%" x2="50%" y1="20px" y2="48px" /></svg><line stroke="black" x1="50%" x2="19.4444%" y1="20px" y2="48px" /><svg width="61.1111%" x="38.8889%" y="48px"><defs /><svg width="100%" x="0" y="0px"><defs /><text text-anchor="middle" x="50%" y="16px">NN</text></svg><svg width="100%" x="0%" y="48px"><defs /><svg width="100%" x="0" y="0px"><defs /><text text-anchor="middle" x="50%" y="16px">influence</text></svg></svg><line stroke="black" x1="50%" x2="50%" y1="20px" y2="48px" /></svg><line stroke="black" x1="50%" x2="69.4444%" y1="20px" y2="48px" /></svg><line stroke="black" x1="50%" x2="19.1489%" y1="20px" y2="48px" /><svg width="61.7021%" x="38.2979%" y="48px"><defs /><svg width="100%" x="0" y="0px"><defs /><text text-anchor="middle" x="50%" y="16px">VP</text></svg><svg width="17.2414%" x="0%" y="48px"><defs /><svg width="100%" x="0" y="0px"><defs /><text text-anchor="middle" x="50%" y="16px">VBD</text></svg><svg width="100%" x="0%" y="48px"><defs /><svg width="100%" x="0" y="0px"><defs /><text text-anchor="middle" x="50%" y="16px">was</text></svg></svg><line stroke="black" x1="50%" x2="50%" y1="20px" y2="48px" /></svg><line stroke="black" x1="50%" x2="8.62069%" y1="20px" y2="48px" /><svg width="82.7586%" x="17.2414%" y="48px"><defs /><svg width="100%" x="0" y="0px"><defs /><text text-anchor="middle" x="50%" y="16px">VP</text></svg><svg width="25%" x="0%" y="48px"><defs /><svg width="100%" x="0" y="0px"><defs /><text text-anchor="middle" x="50%" y="16px">VBN</text></svg><svg width="100%" x="0%" y="48px"><defs /><svg width="100%" x="0" y="0px"><defs /><text text-anchor="middle" x="50%" y="16px">felt</text></svg></svg><line stroke="black" x1="50%" x2="50%" y1="20px" y2="48px" /></svg><line stroke="black" x1="50%" x2="12.5%" y1="20px" y2="48px" /><svg width="75%" x="25%" y="48px"><defs /><svg width="100%" x="0" y="0px"><defs /><text text-anchor="middle" x="50%" y="16px">PP</text></svg><svg width="22.2222%" x="0%" y="48px"><defs /><svg width="100%" x="0" y="0px"><defs /><text text-anchor="middle" x="50%" y="16px">IN</text></svg><svg width="100%" x="0%" y="48px"><defs /><svg width="100%" x="0" y="0px"><defs /><text text-anchor="middle" x="50%" y="16px">at</text></svg></svg><line stroke="black" x1="50%" x2="50%" y1="20px" y2="48px" /></svg><line stroke="black" x1="50%" x2="11.1111%" y1="20px" y2="48px" /><svg width="77.7778%" x="22.2222%" y="48px"><defs /><svg width="100%" x="0" y="0px"><defs /><text text-anchor="middle" x="50%" y="16px">NP</text></svg><svg width="35.7143%" x="0%" y="48px"><defs /><svg width="100%" x="0" y="0px"><defs /><text text-anchor="middle" x="50%" y="16px">DT</text></svg><svg width="100%" x="0%" y="48px"><defs /><svg width="100%" x="0" y="0px"><defs /><text text-anchor="middle" x="50%" y="16px">the</text></svg></svg><line stroke="black" x1="50%" x2="50%" y1="20px" y2="48px" /></svg><line stroke="black" x1="50%" x2="17.8571%" y1="20px" y2="48px" /><svg width="64.2857%" x="35.7143%" y="48px"><defs /><svg width="100%" x="0" y="0px"><defs /><text text-anchor="middle" x="50%" y="16px">JJS</text></svg><svg width="100%" x="0%" y="48px"><defs /><svg width="100%" x="0" y="0px"><defs /><text text-anchor="middle" x="50%" y="16px">highest</text></svg></svg><line stroke="black" x1="50%" x2="50%" y1="20px" y2="48px" /></svg><line stroke="black" x1="50%" x2="67.8571%" y1="20px" y2="48px" /></svg><line stroke="black" x1="50%" x2="61.1111%" y1="20px" y2="48px" /></svg><line stroke="black" x1="50%" x2="62.5%" y1="20px" y2="48px" /></svg><line stroke="black" x1="50%" x2="58.6207%" y1="20px" y2="48px" /></svg><line stroke="black" x1="50%" x2="69.1489%" y1="20px" y2="48px" /></svg><line stroke="black" x1="50%" x2="57.2727%" y1="20px" y2="48px" /></svg><line stroke="black" x1="50%" x2="50%" y1="20px" y2="48px" /></svg><line stroke="black" x1="50%" x2="50%" y1="20px" y2="48px" /></svg><line stroke="black" x1="50%" x2="47.7273%" y1="20px" y2="48px" /><svg width="10.6061%" x="89.3939%" y="48px"><defs /><svg width="100%" x="0" y="0px"><defs /><text text-anchor="middle" x="50%" y="16px">NN</text></svg><svg width="100%" x="0%" y="48px"><defs /><svg width="100%" x="0" y="0px"><defs /><text text-anchor="middle" x="50%" y="16px">level</text></svg></svg><line stroke="black" x1="50%" x2="50%" y1="20px" y2="48px" /></svg><line stroke="black" x1="50%" x2="94.697%" y1="20px" y2="48px" /></svg><line stroke="black" x1="50%" x2="52.8571%" y1="20px" y2="48px" /></svg><line stroke="black" x1="50%" x2="67.8899%" y1="20px" y2="48px" /></svg><line stroke="black" x1="50%" x2="55.3279%" y1="20px" y2="48px" /></svg><line stroke="black" x1="50%" x2="51.9685%" y1="20px" y2="48px" /></svg><line stroke="black" x1="50%" x2="55.6667%" y1="20px" y2="48px" /><svg width="2%" x="98%" y="48px"><defs /><svg width="100%" x="0" y="0px"><defs /><text text-anchor="middle" x="50%" y="16px">.</text></svg><svg width="100%" x="0%" y="48px"><defs /><svg width="100%" x="0" y="0px"><defs /><text text-anchor="middle" x="50%" y="16px">.</text></svg></svg><line stroke="black" x1="50%" x2="50%" y1="20px" y2="48px" /></svg><line stroke="black" x1="50%" x2="99%" y1="20px" y2="48px" /></svg>