<svg baseProfile="full" height="408px" preserveAspectRatio="xMidYMid meet" style="font-family: times, serif; font-weight: normal; font-style: normal; font-size: 16px" version="1.1" viewBox="0,0,600.0,408.0" width="600px" xmlns="http://www.w3.org/2000/svg" xmlns:ev="http://www.w3.org/2001/xml-events" xmlns:xlink="http://www.w3.org/1999/xlink">
	<rect width="100%" height="100%" fill="white" />
	<defs />
	<svg width="100%" x="0" y="0px">
		<defs />
		<text text-anchor="middle" x="50%" y="16px">
			S
		</text>
	</svg>
	<svg width="6.66667%" x="0%" y="48px">
		<defs />
		<svg width="100%" x="0" y="0px">
			<defs />
			<text text-anchor="middle" x="50%" y="16px">
				NP
			</text>
		</svg>
		<svg width="100%" x="0%" y="48px">
			<defs />
			<svg width="100%" x="0" y="0px">
				<defs />
				<text text-anchor="middle" x="50%" y="16px">
					PRP
				</text>
			</svg>
			<svg width="100%" x="0%" y="48px">
				<defs />
				<svg width="100%" x="0" y="0px">
					<defs />
					<text text-anchor="middle" x="50%" y="16px">
						She
					</text>
				</svg>
			</svg>
			<line stroke="black" x1="50%" x2="50%" y1="20px" y2="48px" />
		</svg>
		<line stroke="black" x1="50%" x2="50%" y1="20px" y2="48px" />
	</svg>
	<line stroke="black" x1="50%" x2="3.33333%" y1="20px" y2="48px" />
	<svg width="89.3333%" x="6.66667%" y="48px">
		<defs />
		<svg width="100%" x="0" y="0px">
			<defs />
			<text text-anchor="middle" x="50%" y="16px">
				VP
			</text>
		</svg>
		<svg width="11.9403%" x="0%" y="48px">
			<defs />
			<svg width="100%" x="0" y="0px">
				<defs />
				<text text-anchor="middle" x="50%" y="16px">
					VBD
				</text>
			</svg>
			<svg width="100%" x="0%" y="48px">
				<defs />
				<svg width="100%" x="0" y="0px">
					<defs />
					<text text-anchor="middle" x="50%" y="16px">
						sighed
					</text>
				</svg>
			</svg>
			<line stroke="black" x1="50%" x2="50%" y1="20px" y2="48px" />
		</svg>
		<line stroke="black" x1="50%" x2="5.97015%" y1="20px" y2="48px" />
		<svg width="37.3134%" x="11.9403%" y="48px">
			<defs />
			<svg width="100%" x="0" y="0px">
				<defs />
				<text text-anchor="middle" x="50%" y="16px">
					PP
				</text>
			</svg>
			<svg width="16%" x="0%" y="48px">
				<defs />
				<svg width="100%" x="0" y="0px">
					<defs />
					<text text-anchor="middle" x="50%" y="16px">
						IN
					</text>
				</svg>
				<svg width="100%" x="0%" y="48px">
					<defs />
					<svg width="100%" x="0" y="0px">
						<defs />
						<text text-anchor="middle" x="50%" y="16px">
							at
						</text>
					</svg>
				</svg>
				<line stroke="black" x1="50%" x2="50%" y1="20px" y2="48px" />
			</svg>
			<line stroke="black" x1="50%" x2="8%" y1="20px" y2="48px" />
			<svg width="84%" x="16%" y="48px">
				<defs />
				<svg width="100%" x="0" y="0px">
					<defs />
					<text text-anchor="middle" x="50%" y="16px">
						NP
					</text>
				</svg>
				<svg width="57.1429%" x="0%" y="48px">
					<defs />
					<svg width="100%" x="0" y="0px">
						<defs />
						<text text-anchor="middle" x="50%" y="16px">
							NP
						</text>
					</svg>
					<svg width="41.6667%" x="0%" y="48px">
						<defs />
						<svg width="100%" x="0" y="0px">
							<defs />
							<text text-anchor="middle" x="50%" y="16px">
								DT
							</text>
						</svg>
						<svg width="100%" x="0%" y="48px">
							<defs />
							<svg width="100%" x="0" y="0px">
								<defs />
								<text text-anchor="middle" x="50%" y="16px">
									the
								</text>
							</svg>
						</svg>
						<line stroke="black" x1="50%" x2="50%" y1="20px" y2="48px" />
					</svg>
					<line stroke="black" x1="50%" x2="20.8333%" y1="20px" y2="48px" />
					<svg width="58.3333%" x="41.6667%" y="48px">
						<defs />
						<svg width="100%" x="0" y="0px">
							<defs />
							<text text-anchor="middle" x="50%" y="16px">
								NN
							</text>
						</svg>
						<svg width="100%" x="0%" y="48px">
							<defs />
							<svg width="100%" x="0" y="0px">
								<defs />
								<text text-anchor="middle" x="50%" y="16px">
									irony
								</text>
							</svg>
						</svg>
						<line stroke="black" x1="50%" x2="50%" y1="20px" y2="48px" />
					</svg>
					<line stroke="black" x1="50%" x2="70.8333%" y1="20px" y2="48px" />
				</svg>
				<line stroke="black" x1="50%" x2="28.5714%" y1="20px" y2="48px" />
				<svg width="42.8571%" x="57.1429%" y="48px">
					<defs />
					<svg width="100%" x="0" y="0px">
						<defs />
						<text text-anchor="middle" x="50%" y="16px">
							PP
						</text>
					</svg>
					<svg width="44.4444%" x="0%" y="48px">
						<defs />
						<svg width="100%" x="0" y="0px">
							<defs />
							<text text-anchor="middle" x="50%" y="16px">
								IN
							</text>
						</svg>
						<svg width="100%" x="0%" y="48px">
							<defs />
							<svg width="100%" x="0" y="0px">
								<defs />
								<text text-anchor="middle" x="50%" y="16px">
									of
								</text>
							</svg>
						</svg>
						<line stroke="black" x1="50%" x2="50%" y1="20px" y2="48px" />
					</svg>
					<line stroke="black" x1="50%" x2="22.2222%" y1="20px" y2="48px" />
					<svg width="55.5556%" x="44.4444%" y="48px">
						<defs />
						<svg width="100%" x="0" y="0px">
							<defs />
							<text text-anchor="middle" x="50%" y="16px">
								NP
							</text>
						</svg>
						<svg width="100%" x="0%" y="48px">
							<defs />
							<svg width="100%" x="0" y="0px">
								<defs />
								<text text-anchor="middle" x="50%" y="16px">
									PRP
								</text>
							</svg>
							<svg width="100%" x="0%" y="48px">
								<defs />
								<svg width="100%" x="0" y="0px">
									<defs />
									<text text-anchor="middle" x="50%" y="16px">
										it
									</text>
								</svg>
							</svg>
							<line stroke="black" x1="50%" x2="50%" y1="20px" y2="48px" />
						</svg>
						<line stroke="black" x1="50%" x2="50%" y1="20px" y2="48px" />
					</svg>
					<line stroke="black" x1="50%" x2="72.2222%" y1="20px" y2="48px" />
				</svg>
				<line stroke="black" x1="50%" x2="78.5714%" y1="20px" y2="48px" />
			</svg>
			<line stroke="black" x1="50%" x2="58%" y1="20px" y2="48px" />
		</svg>
		<line stroke="black" x1="50%" x2="30.597%" y1="20px" y2="48px" />
		<svg width="50.7463%" x="49.2537%" y="48px">
			<defs />
			<svg width="100%" x="0" y="0px">
				<defs />
				<text text-anchor="middle" x="50%" y="16px">
					NP
				</text>
			</svg>
			<svg width="14.7059%" x="0%" y="48px">
				<defs />
				<svg width="100%" x="0" y="0px">
					<defs />
					<text text-anchor="middle" x="50%" y="16px">
						NP
					</text>
				</svg>
				<svg width="100%" x="0%" y="48px">
					<defs />
					<svg width="100%" x="0" y="0px">
						<defs />
						<text text-anchor="middle" x="50%" y="16px">
							DT
						</text>
					</svg>
					<svg width="100%" x="0%" y="48px">
						<defs />
						<svg width="100%" x="0" y="0px">
							<defs />
							<text text-anchor="middle" x="50%" y="16px">
								all
							</text>
						</svg>
					</svg>
					<line stroke="black" x1="50%" x2="50%" y1="20px" y2="48px" />
				</svg>
				<line stroke="black" x1="50%" x2="50%" y1="20px" y2="48px" />
			</svg>
			<line stroke="black" x1="50%" x2="7.35294%" y1="20px" y2="48px" />
			<svg width="8.82353%" x="14.7059%" y="48px">
				<defs />
				<svg width="100%" x="0" y="0px">
					<defs />
					<text text-anchor="middle" x="50%" y="16px">
						,
					</text>
				</svg>
				<svg width="100%" x="0%" y="48px">
					<defs />
					<svg width="100%" x="0" y="0px">
						<defs />
						<text text-anchor="middle" x="50%" y="16px">
							,
						</text>
					</svg>
				</svg>
				<line stroke="black" x1="50%" x2="50%" y1="20px" y2="48px" />
			</svg>
			<line stroke="black" x1="50%" x2="19.1176%" y1="20px" y2="48px" />
			<svg width="76.4706%" x="23.5294%" y="48px">
				<defs />
				<svg width="100%" x="0" y="0px">
					<defs />
					<text text-anchor="middle" x="50%" y="16px">
						NP
					</text>
				</svg>
				<svg width="80.7692%" x="0%" y="48px">
					<defs />
					<svg width="100%" x="0" y="0px">
						<defs />
						<text text-anchor="middle" x="50%" y="16px">
							NP
						</text>
					</svg>
					<svg width="57.1429%" x="0%" y="48px">
						<defs />
						<svg width="100%" x="0" y="0px">
							<defs />
							<text text-anchor="middle" x="50%" y="16px">
								NP
							</text>
						</svg>
						<svg width="41.6667%" x="0%" y="48px">
							<defs />
							<svg width="100%" x="0" y="0px">
								<defs />
								<text text-anchor="middle" x="50%" y="16px">
									DT
								</text>
							</svg>
							<svg width="100%" x="0%" y="48px">
								<defs />
								<svg width="100%" x="0" y="0px">
									<defs />
									<text text-anchor="middle" x="50%" y="16px">
										the
									</text>
								</svg>
							</svg>
							<line stroke="black" x1="50%" x2="50%" y1="20px" y2="48px" />
						</svg>
						<line stroke="black" x1="50%" x2="20.8333%" y1="20px" y2="48px" />
						<svg width="58.3333%" x="41.6667%" y="48px">
							<defs />
							<svg width="100%" x="0" y="0px">
								<defs />
								<text text-anchor="middle" x="50%" y="16px">
									NN
								</text>
							</svg>
							<svg width="100%" x="0%" y="48px">
								<defs />
								<svg width="100%" x="0" y="0px">
									<defs />
									<text text-anchor="middle" x="50%" y="16px">
										waste
									</text>
								</svg>
							</svg>
							<line stroke="black" x1="50%" x2="50%" y1="20px" y2="48px" />
						</svg>
						<line stroke="black" x1="50%" x2="70.8333%" y1="20px" y2="48px" />
					</svg>
					<line stroke="black" x1="50%" x2="28.5714%" y1="20px" y2="48px" />
					<svg width="42.8571%" x="57.1429%" y="48px">
						<defs />
						<svg width="100%" x="0" y="0px">
							<defs />
							<text text-anchor="middle" x="50%" y="16px">
								PP
							</text>
						</svg>
						<svg width="44.4444%" x="0%" y="48px">
							<defs />
							<svg width="100%" x="0" y="0px">
								<defs />
								<text text-anchor="middle" x="50%" y="16px">
									IN
								</text>
							</svg>
							<svg width="100%" x="0%" y="48px">
								<defs />
								<svg width="100%" x="0" y="0px">
									<defs />
									<text text-anchor="middle" x="50%" y="16px">
										of
									</text>
								</svg>
							</svg>
							<line stroke="black" x1="50%" x2="50%" y1="20px" y2="48px" />
						</svg>
						<line stroke="black" x1="50%" x2="22.2222%" y1="20px" y2="48px" />
						<svg width="55.5556%" x="44.4444%" y="48px">
							<defs />
							<svg width="100%" x="0" y="0px">
								<defs />
								<text text-anchor="middle" x="50%" y="16px">
									NP
								</text>
							</svg>
							<svg width="100%" x="0%" y="48px">
								<defs />
								<svg width="100%" x="0" y="0px">
									<defs />
									<text text-anchor="middle" x="50%" y="16px">
										PRP
									</text>
								</svg>
								<svg width="100%" x="0%" y="48px">
									<defs />
									<svg width="100%" x="0" y="0px">
										<defs />
										<text text-anchor="middle" x="50%" y="16px">
											it
										</text>
									</svg>
								</svg>
								<line stroke="black" x1="50%" x2="50%" y1="20px" y2="48px" />
							</svg>
							<line stroke="black" x1="50%" x2="50%" y1="20px" y2="48px" />
						</svg>
						<line stroke="black" x1="50%" x2="72.2222%" y1="20px" y2="48px" />
					</svg>
					<line stroke="black" x1="50%" x2="78.5714%" y1="20px" y2="48px" />
				</svg>
				<line stroke="black" x1="50%" x2="40.3846%" y1="20px" y2="48px" />
				<svg width="19.2308%" x="80.7692%" y="48px">
					<defs />
					<svg width="100%" x="0" y="0px">
						<defs />
						<text text-anchor="middle" x="50%" y="16px">
							NP
						</text>
					</svg>
					<svg width="100%" x="0%" y="48px">
						<defs />
						<svg width="100%" x="0" y="0px">
							<defs />
							<text text-anchor="middle" x="50%" y="16px">
								DT
							</text>
						</svg>
						<svg width="100%" x="0%" y="48px">
							<defs />
							<svg width="100%" x="0" y="0px">
								<defs />
								<text text-anchor="middle" x="50%" y="16px">
									all
								</text>
							</svg>
						</svg>
						<line stroke="black" x1="50%" x2="50%" y1="20px" y2="48px" />
					</svg>
					<line stroke="black" x1="50%" x2="50%" y1="20px" y2="48px" />
				</svg>
				<line stroke="black" x1="50%" x2="90.3846%" y1="20px" y2="48px" />
			</svg>
			<line stroke="black" x1="50%" x2="61.7647%" y1="20px" y2="48px" />
		</svg>
		<line stroke="black" x1="50%" x2="74.6269%" y1="20px" y2="48px" />
	</svg>
	<line stroke="black" x1="50%" x2="51.3333%" y1="20px" y2="48px" />
	<svg width="4%" x="96%" y="48px">
		<defs />
		<svg width="100%" x="0" y="0px">
			<defs />
			<text text-anchor="middle" x="50%" y="16px">
				.
			</text>
		</svg>
		<svg width="100%" x="0%" y="48px">
			<defs />
			<svg width="100%" x="0" y="0px">
				<defs />
				<text text-anchor="middle" x="50%" y="16px">
					.
				</text>
			</svg>
		</svg>
		<line stroke="black" x1="50%" x2="50%" y1="20px" y2="48px" />
	</svg>
	<line stroke="black" x1="50%" x2="98%" y1="20px" y2="48px" />
</svg>
