<svg baseProfile="full" height="648px" preserveAspectRatio="xMidYMid meet" style="font-family: times, serif; font-weight: normal; font-style: normal; font-size: 16px" version="1.1" viewBox="0,0,496.0,648.0" width="496px" xmlns="http://www.w3.org/2000/svg" xmlns:ev="http://www.w3.org/2001/xml-events" xmlns:xlink="http://www.w3.org/1999/xlink">
	<rect width="100%" height="100%" fill="white" />
	<defs />
	<svg width="100%" x="0" y="0px">
		<defs />
		<text text-anchor="middle" x="50%" y="16px">
			S
		</text>
	</svg>
	<svg width="95.1613%" x="0%" y="48px">
		<defs />
		<svg width="100%" x="0" y="0px">
			<defs />
			<text text-anchor="middle" x="50%" y="16px">
				VP
			</text>
		</svg>
		<svg width="11.8644%" x="0%" y="48px">
			<defs />
			<svg width="100%" x="0" y="0px">
				<defs />
				<text text-anchor="middle" x="50%" y="16px">
					VB
				</text>
			</svg>
			<svg width="100%" x="0%" y="48px">
				<defs />
				<svg width="100%" x="0" y="0px">
					<defs />
					<text text-anchor="middle" x="50%" y="16px">
						Thank
					</text>
				</svg>
			</svg>
			<line stroke="black" x1="50%" x2="50%" y1="20px" y2="48px" />
		</svg>
		<line stroke="black" x1="50%" x2="5.9322%" y1="20px" y2="48px" />
		<svg width="88.1356%" x="11.8644%" y="48px">
			<defs />
			<svg width="100%" x="0" y="0px">
				<defs />
				<text text-anchor="middle" x="50%" y="16px">
					NP
				</text>
			</svg>
			<svg width="21.1538%" x="0%" y="48px">
				<defs />
				<svg width="100%" x="0" y="0px">
					<defs />
					<text text-anchor="middle" x="50%" y="16px">
						NP
					</text>
				</svg>
				<svg width="45.4545%" x="0%" y="48px">
					<defs />
					<svg width="100%" x="0" y="0px">
						<defs />
						<text text-anchor="middle" x="50%" y="16px">
							DT
						</text>
					</svg>
					<svg width="100%" x="0%" y="48px">
						<defs />
						<svg width="100%" x="0" y="0px">
							<defs />
							<text text-anchor="middle" x="50%" y="16px">
								the
							</text>
						</svg>
					</svg>
					<line stroke="black" x1="50%" x2="50%" y1="20px" y2="48px" />
				</svg>
				<line stroke="black" x1="50%" x2="22.7273%" y1="20px" y2="48px" />
				<svg width="54.5455%" x="45.4545%" y="48px">
					<defs />
					<svg width="100%" x="0" y="0px">
						<defs />
						<text text-anchor="middle" x="50%" y="16px">
							NNS
						</text>
					</svg>
					<svg width="100%" x="0%" y="48px">
						<defs />
						<svg width="100%" x="0" y="0px">
							<defs />
							<text text-anchor="middle" x="50%" y="16px">
								gods
							</text>
						</svg>
					</svg>
					<line stroke="black" x1="50%" x2="50%" y1="20px" y2="48px" />
				</svg>
				<line stroke="black" x1="50%" x2="72.7273%" y1="20px" y2="48px" />
			</svg>
			<line stroke="black" x1="50%" x2="10.5769%" y1="20px" y2="48px" />
			<svg width="78.8462%" x="21.1538%" y="48px">
				<defs />
				<svg width="100%" x="0" y="0px">
					<defs />
					<text text-anchor="middle" x="50%" y="16px">
						SBAR
					</text>
				</svg>
				<svg width="100%" x="0%" y="48px">
					<defs />
					<svg width="100%" x="0" y="0px">
						<defs />
						<text text-anchor="middle" x="50%" y="16px">
							S
						</text>
					</svg>
					<svg width="12.1951%" x="0%" y="48px">
						<defs />
						<svg width="100%" x="0" y="0px">
							<defs />
							<text text-anchor="middle" x="50%" y="16px">
								NP
							</text>
						</svg>
						<svg width="100%" x="0%" y="48px">
							<defs />
							<svg width="100%" x="0" y="0px">
								<defs />
								<text text-anchor="middle" x="50%" y="16px">
									PRP
								</text>
							</svg>
							<svg width="100%" x="0%" y="48px">
								<defs />
								<svg width="100%" x="0" y="0px">
									<defs />
									<text text-anchor="middle" x="50%" y="16px">
										he
									</text>
								</svg>
							</svg>
							<line stroke="black" x1="50%" x2="50%" y1="20px" y2="48px" />
						</svg>
						<line stroke="black" x1="50%" x2="50%" y1="20px" y2="48px" />
					</svg>
					<line stroke="black" x1="50%" x2="6.09756%" y1="20px" y2="48px" />
					<svg width="87.8049%" x="12.1951%" y="48px">
						<defs />
						<svg width="100%" x="0" y="0px">
							<defs />
							<text text-anchor="middle" x="50%" y="16px">
								VP
							</text>
						</svg>
						<svg width="13.8889%" x="0%" y="48px">
							<defs />
							<svg width="100%" x="0" y="0px">
								<defs />
								<text text-anchor="middle" x="50%" y="16px">
									VBD
								</text>
							</svg>
							<svg width="100%" x="0%" y="48px">
								<defs />
								<svg width="100%" x="0" y="0px">
									<defs />
									<text text-anchor="middle" x="50%" y="16px">
										did
									</text>
								</svg>
							</svg>
							<line stroke="black" x1="50%" x2="50%" y1="20px" y2="48px" />
						</svg>
						<line stroke="black" x1="50%" x2="6.94444%" y1="20px" y2="48px" />
						<svg width="13.8889%" x="13.8889%" y="48px">
							<defs />
							<svg width="100%" x="0" y="0px">
								<defs />
								<text text-anchor="middle" x="50%" y="16px">
									RB
								</text>
							</svg>
							<svg width="100%" x="0%" y="48px">
								<defs />
								<svg width="100%" x="0" y="0px">
									<defs />
									<text text-anchor="middle" x="50%" y="16px">
										n't
									</text>
								</svg>
							</svg>
							<line stroke="black" x1="50%" x2="50%" y1="20px" y2="48px" />
						</svg>
						<line stroke="black" x1="50%" x2="20.8333%" y1="20px" y2="48px" />
						<svg width="72.2222%" x="27.7778%" y="48px">
							<defs />
							<svg width="100%" x="0" y="0px">
								<defs />
								<text text-anchor="middle" x="50%" y="16px">
									VP
								</text>
							</svg>
							<svg width="23.0769%" x="0%" y="48px">
								<defs />
								<svg width="100%" x="0" y="0px">
									<defs />
									<text text-anchor="middle" x="50%" y="16px">
										VB
									</text>
								</svg>
								<svg width="100%" x="0%" y="48px">
									<defs />
									<svg width="100%" x="0" y="0px">
										<defs />
										<text text-anchor="middle" x="50%" y="16px">
											have
										</text>
									</svg>
								</svg>
								<line stroke="black" x1="50%" x2="50%" y1="20px" y2="48px" />
							</svg>
							<line stroke="black" x1="50%" x2="11.5385%" y1="20px" y2="48px" />
							<svg width="76.9231%" x="23.0769%" y="48px">
								<defs />
								<svg width="100%" x="0" y="0px">
									<defs />
									<text text-anchor="middle" x="50%" y="16px">
										S
									</text>
								</svg>
								<svg width="100%" x="0%" y="48px">
									<defs />
									<svg width="100%" x="0" y="0px">
										<defs />
										<text text-anchor="middle" x="50%" y="16px">
											VP
										</text>
									</svg>
									<svg width="20%" x="0%" y="48px">
										<defs />
										<svg width="100%" x="0" y="0px">
											<defs />
											<text text-anchor="middle" x="50%" y="16px">
												TO
											</text>
										</svg>
										<svg width="100%" x="0%" y="48px">
											<defs />
											<svg width="100%" x="0" y="0px">
												<defs />
												<text text-anchor="middle" x="50%" y="16px">
													to
												</text>
											</svg>
										</svg>
										<line stroke="black" x1="50%" x2="50%" y1="20px" y2="48px" />
									</svg>
									<line stroke="black" x1="50%" x2="10%" y1="20px" y2="48px" />
									<svg width="80%" x="20%" y="48px">
										<defs />
										<svg width="100%" x="0" y="0px">
											<defs />
											<text text-anchor="middle" x="50%" y="16px">
												VP
											</text>
										</svg>
										<svg width="37.5%" x="0%" y="48px">
											<defs />
											<svg width="100%" x="0" y="0px">
												<defs />
												<text text-anchor="middle" x="50%" y="16px">
													VB
												</text>
											</svg>
											<svg width="100%" x="0%" y="48px">
												<defs />
												<svg width="100%" x="0" y="0px">
													<defs />
													<text text-anchor="middle" x="50%" y="16px">
														know
													</text>
												</svg>
											</svg>
											<line stroke="black" x1="50%" x2="50%" y1="20px" y2="48px" />
										</svg>
										<line stroke="black" x1="50%" x2="18.75%" y1="20px" y2="48px" />
										<svg width="62.5%" x="37.5%" y="48px">
											<defs />
											<svg width="100%" x="0" y="0px">
												<defs />
												<text text-anchor="middle" x="50%" y="16px">
													PP
												</text>
											</svg>
											<svg width="40%" x="0%" y="48px">
												<defs />
												<svg width="100%" x="0" y="0px">
													<defs />
													<text text-anchor="middle" x="50%" y="16px">
														IN
													</text>
												</svg>
												<svg width="100%" x="0%" y="48px">
													<defs />
													<svg width="100%" x="0" y="0px">
														<defs />
														<text text-anchor="middle" x="50%" y="16px">
															of
														</text>
													</svg>
												</svg>
												<line stroke="black" x1="50%" x2="50%" y1="20px" y2="48px" />
											</svg>
											<line stroke="black" x1="50%" x2="20%" y1="20px" y2="48px" />
											<svg width="60%" x="40%" y="48px">
												<defs />
												<svg width="100%" x="0" y="0px">
													<defs />
													<text text-anchor="middle" x="50%" y="16px">
														NP
													</text>
												</svg>
												<svg width="100%" x="0%" y="48px">
													<defs />
													<svg width="100%" x="0" y="0px">
														<defs />
														<text text-anchor="middle" x="50%" y="16px">
															DT
														</text>
													</svg>
													<svg width="100%" x="0%" y="48px">
														<defs />
														<svg width="100%" x="0" y="0px">
															<defs />
															<text text-anchor="middle" x="50%" y="16px">
																this
															</text>
														</svg>
													</svg>
													<line stroke="black" x1="50%" x2="50%" y1="20px" y2="48px" />
												</svg>
												<line stroke="black" x1="50%" x2="50%" y1="20px" y2="48px" />
											</svg>
											<line stroke="black" x1="50%" x2="70%" y1="20px" y2="48px" />
										</svg>
										<line stroke="black" x1="50%" x2="68.75%" y1="20px" y2="48px" />
									</svg>
									<line stroke="black" x1="50%" x2="60%" y1="20px" y2="48px" />
								</svg>
								<line stroke="black" x1="50%" x2="50%" y1="20px" y2="48px" />
							</svg>
							<line stroke="black" x1="50%" x2="61.5385%" y1="20px" y2="48px" />
						</svg>
						<line stroke="black" x1="50%" x2="63.8889%" y1="20px" y2="48px" />
					</svg>
					<line stroke="black" x1="50%" x2="56.0976%" y1="20px" y2="48px" />
				</svg>
				<line stroke="black" x1="50%" x2="50%" y1="20px" y2="48px" />
			</svg>
			<line stroke="black" x1="50%" x2="60.5769%" y1="20px" y2="48px" />
		</svg>
		<line stroke="black" x1="50%" x2="55.9322%" y1="20px" y2="48px" />
	</svg>
	<line stroke="black" x1="50%" x2="47.5806%" y1="20px" y2="48px" />
	<svg width="4.83871%" x="95.1613%" y="48px">
		<defs />
		<svg width="100%" x="0" y="0px">
			<defs />
			<text text-anchor="middle" x="50%" y="16px">
				.
			</text>
		</svg>
		<svg width="100%" x="0%" y="48px">
			<defs />
			<svg width="100%" x="0" y="0px">
				<defs />
				<text text-anchor="middle" x="50%" y="16px">
					.
				</text>
			</svg>
		</svg>
		<line stroke="black" x1="50%" x2="50%" y1="20px" y2="48px" />
	</svg>
	<line stroke="black" x1="50%" x2="97.5806%" y1="20px" y2="48px" />
</svg>
