<svg baseProfile="full" height="360px" preserveAspectRatio="xMidYMid meet" style="font-family: times, serif; font-weight: normal; font-style: normal; font-size: 16px" version="1.1" viewBox="0,0,1200.0,360.0" width="1200px" xmlns="http://www.w3.org/2000/svg" xmlns:ev="http://www.w3.org/2001/xml-events" xmlns:xlink="http://www.w3.org/1999/xlink">
	<rect width="100%" height="100%" fill="white" />
	<defs />
	<svg width="100%" x="0" y="0px">
		<defs />
		<text text-anchor="middle" x="50%" y="16px">
			S
		</text>
	</svg>
	<svg width="7.33333%" x="0%" y="48px">
		<defs />
		<svg width="100%" x="0" y="0px">
			<defs />
			<text text-anchor="middle" x="50%" y="16px">
				ADVP
			</text>
		</svg>
		<svg width="100%" x="0%" y="48px">
			<defs />
			<svg width="100%" x="0" y="0px">
				<defs />
				<text text-anchor="middle" x="50%" y="16px">
					RB
				</text>
			</svg>
			<svg width="100%" x="0%" y="48px">
				<defs />
				<svg width="100%" x="0" y="0px">
					<defs />
					<text text-anchor="middle" x="50%" y="16px">
						Prudently
					</text>
				</svg>
			</svg>
			<line stroke="black" x1="50%" x2="50%" y1="20px" y2="48px" />
		</svg>
		<line stroke="black" x1="50%" x2="50%" y1="20px" y2="48px" />
	</svg>
	<line stroke="black" x1="50%" x2="3.66667%" y1="20px" y2="48px" />
	<svg width="2%" x="7.33333%" y="48px">
		<defs />
		<svg width="100%" x="0" y="0px">
			<defs />
			<text text-anchor="middle" x="50%" y="16px">
				,
			</text>
		</svg>
		<svg width="100%" x="0%" y="48px">
			<defs />
			<svg width="100%" x="0" y="0px">
				<defs />
				<text text-anchor="middle" x="50%" y="16px">
					,
				</text>
			</svg>
		</svg>
		<line stroke="black" x1="50%" x2="50%" y1="20px" y2="48px" />
	</svg>
	<line stroke="black" x1="50%" x2="8.33333%" y1="20px" y2="48px" />
	<svg width="36.6667%" x="9.33333%" y="48px">
		<defs />
		<svg width="100%" x="0" y="0px">
			<defs />
			<text text-anchor="middle" x="50%" y="16px">
				S
			</text>
		</svg>
		<svg width="10.9091%" x="0%" y="48px">
			<defs />
			<svg width="100%" x="0" y="0px">
				<defs />
				<text text-anchor="middle" x="50%" y="16px">
					NP
				</text>
			</svg>
			<svg width="100%" x="0%" y="48px">
				<defs />
				<svg width="100%" x="0" y="0px">
					<defs />
					<text text-anchor="middle" x="50%" y="16px">
						PRP
					</text>
				</svg>
				<svg width="100%" x="0%" y="48px">
					<defs />
					<svg width="100%" x="0" y="0px">
						<defs />
						<text text-anchor="middle" x="50%" y="16px">
							they
						</text>
					</svg>
				</svg>
				<line stroke="black" x1="50%" x2="50%" y1="20px" y2="48px" />
			</svg>
			<line stroke="black" x1="50%" x2="50%" y1="20px" y2="48px" />
		</svg>
		<line stroke="black" x1="50%" x2="5.45455%" y1="20px" y2="48px" />
		<svg width="89.0909%" x="10.9091%" y="48px">
			<defs />
			<svg width="100%" x="0" y="0px">
				<defs />
				<text text-anchor="middle" x="50%" y="16px">
					VP
				</text>
			</svg>
			<svg width="10.2041%" x="0%" y="48px">
				<defs />
				<svg width="100%" x="0" y="0px">
					<defs />
					<text text-anchor="middle" x="50%" y="16px">
						VBD
					</text>
				</svg>
				<svg width="100%" x="0%" y="48px">
					<defs />
					<svg width="100%" x="0" y="0px">
						<defs />
						<text text-anchor="middle" x="50%" y="16px">
							had
						</text>
					</svg>
				</svg>
				<line stroke="black" x1="50%" x2="50%" y1="20px" y2="48px" />
			</svg>
			<line stroke="black" x1="50%" x2="5.10204%" y1="20px" y2="48px" />
			<svg width="89.7959%" x="10.2041%" y="48px">
				<defs />
				<svg width="100%" x="0" y="0px">
					<defs />
					<text text-anchor="middle" x="50%" y="16px">
						VP
					</text>
				</svg>
				<svg width="29.5455%" x="0%" y="48px">
					<defs />
					<svg width="100%" x="0" y="0px">
						<defs />
						<text text-anchor="middle" x="50%" y="16px">
							VBN
						</text>
					</svg>
					<svg width="100%" x="0%" y="48px">
						<defs />
						<svg width="100%" x="0" y="0px">
							<defs />
							<text text-anchor="middle" x="50%" y="16px">
								diversified
							</text>
						</svg>
					</svg>
					<line stroke="black" x1="50%" x2="50%" y1="20px" y2="48px" />
				</svg>
				<line stroke="black" x1="50%" x2="14.7727%" y1="20px" y2="48px" />
				<svg width="70.4545%" x="29.5455%" y="48px">
					<defs />
					<svg width="100%" x="0" y="0px">
						<defs />
						<text text-anchor="middle" x="50%" y="16px">
							PP
						</text>
					</svg>
					<svg width="19.3548%" x="0%" y="48px">
						<defs />
						<svg width="100%" x="0" y="0px">
							<defs />
							<text text-anchor="middle" x="50%" y="16px">
								IN
							</text>
						</svg>
						<svg width="100%" x="0%" y="48px">
							<defs />
							<svg width="100%" x="0" y="0px">
								<defs />
								<text text-anchor="middle" x="50%" y="16px">
									into
								</text>
							</svg>
						</svg>
						<line stroke="black" x1="50%" x2="50%" y1="20px" y2="48px" />
					</svg>
					<line stroke="black" x1="50%" x2="9.67742%" y1="20px" y2="48px" />
					<svg width="80.6452%" x="19.3548%" y="48px">
						<defs />
						<svg width="100%" x="0" y="0px">
							<defs />
							<text text-anchor="middle" x="50%" y="16px">
								NP
							</text>
						</svg>
						<svg width="36%" x="0%" y="48px">
							<defs />
							<svg width="100%" x="0" y="0px">
								<defs />
								<text text-anchor="middle" x="50%" y="16px">
									NN
								</text>
							</svg>
							<svg width="100%" x="0%" y="48px">
								<defs />
								<svg width="100%" x="0" y="0px">
									<defs />
									<text text-anchor="middle" x="50%" y="16px">
										banking
									</text>
								</svg>
							</svg>
							<line stroke="black" x1="50%" x2="50%" y1="20px" y2="48px" />
						</svg>
						<line stroke="black" x1="50%" x2="18%" y1="20px" y2="48px" />
						<svg width="20%" x="36%" y="48px">
							<defs />
							<svg width="100%" x="0" y="0px">
								<defs />
								<text text-anchor="middle" x="50%" y="16px">
									CC
								</text>
							</svg>
							<svg width="100%" x="0%" y="48px">
								<defs />
								<svg width="100%" x="0" y="0px">
									<defs />
									<text text-anchor="middle" x="50%" y="16px">
										and
									</text>
								</svg>
							</svg>
							<line stroke="black" x1="50%" x2="50%" y1="20px" y2="48px" />
						</svg>
						<line stroke="black" x1="50%" x2="46%" y1="20px" y2="48px" />
						<svg width="44%" x="56%" y="48px">
							<defs />
							<svg width="100%" x="0" y="0px">
								<defs />
								<text text-anchor="middle" x="50%" y="16px">
									NN
								</text>
							</svg>
							<svg width="100%" x="0%" y="48px">
								<defs />
								<svg width="100%" x="0" y="0px">
									<defs />
									<text text-anchor="middle" x="50%" y="16px">
										insurance
									</text>
								</svg>
							</svg>
							<line stroke="black" x1="50%" x2="50%" y1="20px" y2="48px" />
						</svg>
						<line stroke="black" x1="50%" x2="78%" y1="20px" y2="48px" />
					</svg>
					<line stroke="black" x1="50%" x2="59.6774%" y1="20px" y2="48px" />
				</svg>
				<line stroke="black" x1="50%" x2="64.7727%" y1="20px" y2="48px" />
			</svg>
			<line stroke="black" x1="50%" x2="55.102%" y1="20px" y2="48px" />
		</svg>
		<line stroke="black" x1="50%" x2="55.4545%" y1="20px" y2="48px" />
	</svg>
	<line stroke="black" x1="50%" x2="27.6667%" y1="20px" y2="48px" />
	<svg width="2%" x="46%" y="48px">
		<defs />
		<svg width="100%" x="0" y="0px">
			<defs />
			<text text-anchor="middle" x="50%" y="16px">
				,
			</text>
		</svg>
		<svg width="100%" x="0%" y="48px">
			<defs />
			<svg width="100%" x="0" y="0px">
				<defs />
				<text text-anchor="middle" x="50%" y="16px">
					,
				</text>
			</svg>
		</svg>
		<line stroke="black" x1="50%" x2="50%" y1="20px" y2="48px" />
	</svg>
	<line stroke="black" x1="50%" x2="47%" y1="20px" y2="48px" />
	<svg width="3.33333%" x="48%" y="48px">
		<defs />
		<svg width="100%" x="0" y="0px">
			<defs />
			<text text-anchor="middle" x="50%" y="16px">
				CC
			</text>
		</svg>
		<svg width="100%" x="0%" y="48px">
			<defs />
			<svg width="100%" x="0" y="0px">
				<defs />
				<text text-anchor="middle" x="50%" y="16px">
					and
				</text>
			</svg>
		</svg>
		<line stroke="black" x1="50%" x2="50%" y1="20px" y2="48px" />
	</svg>
	<line stroke="black" x1="50%" x2="49.6667%" y1="20px" y2="48px" />
	<svg width="46.6667%" x="51.3333%" y="48px">
		<defs />
		<svg width="100%" x="0" y="0px">
			<defs />
			<text text-anchor="middle" x="50%" y="16px">
				S
			</text>
		</svg>
		<svg width="22.8571%" x="0%" y="48px">
			<defs />
			<svg width="100%" x="0" y="0px">
				<defs />
				<text text-anchor="middle" x="50%" y="16px">
					PP
				</text>
			</svg>
			<svg width="25%" x="0%" y="48px">
				<defs />
				<svg width="100%" x="0" y="0px">
					<defs />
					<text text-anchor="middle" x="50%" y="16px">
						IN
					</text>
				</svg>
				<svg width="100%" x="0%" y="48px">
					<defs />
					<svg width="100%" x="0" y="0px">
						<defs />
						<text text-anchor="middle" x="50%" y="16px">
							as
						</text>
					</svg>
				</svg>
				<line stroke="black" x1="50%" x2="50%" y1="20px" y2="48px" />
			</svg>
			<line stroke="black" x1="50%" x2="12.5%" y1="20px" y2="48px" />
			<svg width="75%" x="25%" y="48px">
				<defs />
				<svg width="100%" x="0" y="0px">
					<defs />
					<text text-anchor="middle" x="50%" y="16px">
						NP
					</text>
				</svg>
				<svg width="33.3333%" x="0%" y="48px">
					<defs />
					<svg width="100%" x="0" y="0px">
						<defs />
						<text text-anchor="middle" x="50%" y="16px">
							DT
						</text>
					</svg>
					<svg width="100%" x="0%" y="48px">
						<defs />
						<svg width="100%" x="0" y="0px">
							<defs />
							<text text-anchor="middle" x="50%" y="16px">
								a
							</text>
						</svg>
					</svg>
					<line stroke="black" x1="50%" x2="50%" y1="20px" y2="48px" />
				</svg>
				<line stroke="black" x1="50%" x2="16.6667%" y1="20px" y2="48px" />
				<svg width="66.6667%" x="33.3333%" y="48px">
					<defs />
					<svg width="100%" x="0" y="0px">
						<defs />
						<text text-anchor="middle" x="50%" y="16px">
							NN
						</text>
					</svg>
					<svg width="100%" x="0%" y="48px">
						<defs />
						<svg width="100%" x="0" y="0px">
							<defs />
							<text text-anchor="middle" x="50%" y="16px">
								result
							</text>
						</svg>
					</svg>
					<line stroke="black" x1="50%" x2="50%" y1="20px" y2="48px" />
				</svg>
				<line stroke="black" x1="50%" x2="66.6667%" y1="20px" y2="48px" />
			</svg>
			<line stroke="black" x1="50%" x2="62.5%" y1="20px" y2="48px" />
		</svg>
		<line stroke="black" x1="50%" x2="11.4286%" y1="20px" y2="48px" />
		<svg width="25.7143%" x="22.8571%" y="48px">
			<defs />
			<svg width="100%" x="0" y="0px">
				<defs />
				<text text-anchor="middle" x="50%" y="16px">
					NP
				</text>
			</svg>
			<svg width="38.8889%" x="0%" y="48px">
				<defs />
				<svg width="100%" x="0" y="0px">
					<defs />
					<text text-anchor="middle" x="50%" y="16px">
						PRP$
					</text>
				</svg>
				<svg width="100%" x="0%" y="48px">
					<defs />
					<svg width="100%" x="0" y="0px">
						<defs />
						<text text-anchor="middle" x="50%" y="16px">
							their
						</text>
					</svg>
				</svg>
				<line stroke="black" x1="50%" x2="50%" y1="20px" y2="48px" />
			</svg>
			<line stroke="black" x1="50%" x2="19.4444%" y1="20px" y2="48px" />
			<svg width="61.1111%" x="38.8889%" y="48px">
				<defs />
				<svg width="100%" x="0" y="0px">
					<defs />
					<text text-anchor="middle" x="50%" y="16px">
						NN
					</text>
				</svg>
				<svg width="100%" x="0%" y="48px">
					<defs />
					<svg width="100%" x="0" y="0px">
						<defs />
						<text text-anchor="middle" x="50%" y="16px">
							influence
						</text>
					</svg>
				</svg>
				<line stroke="black" x1="50%" x2="50%" y1="20px" y2="48px" />
			</svg>
			<line stroke="black" x1="50%" x2="69.4444%" y1="20px" y2="48px" />
		</svg>
		<line stroke="black" x1="50%" x2="35.7143%" y1="20px" y2="48px" />
		<svg width="51.4286%" x="48.5714%" y="48px">
			<defs />
			<svg width="100%" x="0" y="0px">
				<defs />
				<text text-anchor="middle" x="50%" y="16px">
					VP
				</text>
			</svg>
			<svg width="13.8889%" x="0%" y="48px">
				<defs />
				<svg width="100%" x="0" y="0px">
					<defs />
					<text text-anchor="middle" x="50%" y="16px">
						VBD
					</text>
				</svg>
				<svg width="100%" x="0%" y="48px">
					<defs />
					<svg width="100%" x="0" y="0px">
						<defs />
						<text text-anchor="middle" x="50%" y="16px">
							was
						</text>
					</svg>
				</svg>
				<line stroke="black" x1="50%" x2="50%" y1="20px" y2="48px" />
			</svg>
			<line stroke="black" x1="50%" x2="6.94444%" y1="20px" y2="48px" />
			<svg width="86.1111%" x="13.8889%" y="48px">
				<defs />
				<svg width="100%" x="0" y="0px">
					<defs />
					<text text-anchor="middle" x="50%" y="16px">
						VP
					</text>
				</svg>
				<svg width="19.3548%" x="0%" y="48px">
					<defs />
					<svg width="100%" x="0" y="0px">
						<defs />
						<text text-anchor="middle" x="50%" y="16px">
							VBN
						</text>
					</svg>
					<svg width="100%" x="0%" y="48px">
						<defs />
						<svg width="100%" x="0" y="0px">
							<defs />
							<text text-anchor="middle" x="50%" y="16px">
								felt
							</text>
						</svg>
					</svg>
					<line stroke="black" x1="50%" x2="50%" y1="20px" y2="48px" />
				</svg>
				<line stroke="black" x1="50%" x2="9.67742%" y1="20px" y2="48px" />
				<svg width="80.6452%" x="19.3548%" y="48px">
					<defs />
					<svg width="100%" x="0" y="0px">
						<defs />
						<text text-anchor="middle" x="50%" y="16px">
							PP
						</text>
					</svg>
					<svg width="16%" x="0%" y="48px">
						<defs />
						<svg width="100%" x="0" y="0px">
							<defs />
							<text text-anchor="middle" x="50%" y="16px">
								IN
							</text>
						</svg>
						<svg width="100%" x="0%" y="48px">
							<defs />
							<svg width="100%" x="0" y="0px">
								<defs />
								<text text-anchor="middle" x="50%" y="16px">
									at
								</text>
							</svg>
						</svg>
						<line stroke="black" x1="50%" x2="50%" y1="20px" y2="48px" />
					</svg>
					<line stroke="black" x1="50%" x2="8%" y1="20px" y2="48px" />
					<svg width="84%" x="16%" y="48px">
						<defs />
						<svg width="100%" x="0" y="0px">
							<defs />
							<text text-anchor="middle" x="50%" y="16px">
								NP
							</text>
						</svg>
						<svg width="23.8095%" x="0%" y="48px">
							<defs />
							<svg width="100%" x="0" y="0px">
								<defs />
								<text text-anchor="middle" x="50%" y="16px">
									DT
								</text>
							</svg>
							<svg width="100%" x="0%" y="48px">
								<defs />
								<svg width="100%" x="0" y="0px">
									<defs />
									<text text-anchor="middle" x="50%" y="16px">
										the
									</text>
								</svg>
							</svg>
							<line stroke="black" x1="50%" x2="50%" y1="20px" y2="48px" />
						</svg>
						<line stroke="black" x1="50%" x2="11.9048%" y1="20px" y2="48px" />
						<svg width="42.8571%" x="23.8095%" y="48px">
							<defs />
							<svg width="100%" x="0" y="0px">
								<defs />
								<text text-anchor="middle" x="50%" y="16px">
									JJS
								</text>
							</svg>
							<svg width="100%" x="0%" y="48px">
								<defs />
								<svg width="100%" x="0" y="0px">
									<defs />
									<text text-anchor="middle" x="50%" y="16px">
										highest
									</text>
								</svg>
							</svg>
							<line stroke="black" x1="50%" x2="50%" y1="20px" y2="48px" />
						</svg>
						<line stroke="black" x1="50%" x2="45.2381%" y1="20px" y2="48px" />
						<svg width="33.3333%" x="66.6667%" y="48px">
							<defs />
							<svg width="100%" x="0" y="0px">
								<defs />
								<text text-anchor="middle" x="50%" y="16px">
									NN
								</text>
							</svg>
							<svg width="100%" x="0%" y="48px">
								<defs />
								<svg width="100%" x="0" y="0px">
									<defs />
									<text text-anchor="middle" x="50%" y="16px">
										level
									</text>
								</svg>
							</svg>
							<line stroke="black" x1="50%" x2="50%" y1="20px" y2="48px" />
						</svg>
						<line stroke="black" x1="50%" x2="83.3333%" y1="20px" y2="48px" />
					</svg>
					<line stroke="black" x1="50%" x2="58%" y1="20px" y2="48px" />
				</svg>
				<line stroke="black" x1="50%" x2="59.6774%" y1="20px" y2="48px" />
			</svg>
			<line stroke="black" x1="50%" x2="56.9444%" y1="20px" y2="48px" />
		</svg>
		<line stroke="black" x1="50%" x2="74.2857%" y1="20px" y2="48px" />
	</svg>
	<line stroke="black" x1="50%" x2="74.6667%" y1="20px" y2="48px" />
	<svg width="2%" x="98%" y="48px">
		<defs />
		<svg width="100%" x="0" y="0px">
			<defs />
			<text text-anchor="middle" x="50%" y="16px">
				.
			</text>
		</svg>
		<svg width="100%" x="0%" y="48px">
			<defs />
			<svg width="100%" x="0" y="0px">
				<defs />
				<text text-anchor="middle" x="50%" y="16px">
					.
				</text>
			</svg>
		</svg>
		<line stroke="black" x1="50%" x2="50%" y1="20px" y2="48px" />
	</svg>
	<line stroke="black" x1="50%" x2="99%" y1="20px" y2="48px" />
</svg>
